<?xml version="1.0" standalone="no"?>
<!DOCTYPE svg PUBLIC "-//W3C//DTD SVG 1.1//EN" "http://www.w3.org/Graphics/SVG/1.1/DTD/svg11.dtd">
<svg xmlns="http://www.w3.org/2000/svg" xmlns:xlink="http://www.w3.org/1999/xlink" width="1500" zoomAndPan="magnify" viewBox="0 0 1500 599.999999" height="600" preserveAspectRatio="xMidYMid meet" version="1.0"><defs><g/></defs><g fill="#2e5d3a" fill-opacity="1"><g transform="translate(190.429504, 380.159934)"><g><path d="M 77.3125 -139.0625 L 79.625 -116.578125 C 83.414062 -128.179688 88.929688 -136.878906 96.171875 -142.671875 C 103.410156 -148.472656 111.34375 -151.375 119.96875 -151.375 C 130.332031 -151.375 138.3125 -148.367188 143.90625 -142.359375 C 149.507812 -136.359375 152.3125 -127.40625 152.3125 -115.5 C 152.3125 -104.207031 150 -95.835938 145.375 -90.390625 C 140.757812 -84.953125 134.804688 -82.234375 127.515625 -82.234375 C 120.117188 -82.234375 114.519531 -84.15625 110.71875 -88 C 106.925781 -91.851562 105.03125 -97.222656 105.03125 -104.109375 L 105.03125 -110.265625 C 104.925781 -116.117188 102.203125 -119.046875 96.859375 -119.046875 C 92.648438 -119.046875 88.90625 -116.347656 85.625 -110.953125 C 82.34375 -105.566406 80.703125 -96.765625 80.703125 -84.546875 L 80.703125 -28.796875 C 80.703125 -25.515625 81.238281 -23.128906 82.3125 -21.640625 C 83.394531 -20.148438 85.679688 -19.148438 89.171875 -18.640625 L 101.484375 -16.328125 C 106.921875 -15.398438 109.640625 -12.628906 109.640625 -8.015625 C 109.640625 -2.671875 106.203125 0 99.328125 0 L 20.796875 0 C 17.296875 0 14.722656 -0.691406 13.078125 -2.078125 C 11.441406 -3.460938 10.625 -5.390625 10.625 -7.859375 C 10.625 -11.453125 12.675781 -14.117188 16.78125 -15.859375 L 21.5625 -17.40625 C 23.300781 -18.019531 24.53125 -19.117188 25.25 -20.703125 C 25.96875 -22.296875 26.328125 -24.941406 26.328125 -28.640625 L 26.328125 -108.265625 C 26.328125 -111.242188 25.914062 -113.375 25.09375 -114.65625 C 24.28125 -115.9375 22.945312 -116.78125 21.09375 -117.1875 L 15.40625 -117.96875 C 11.601562 -118.988281 9.703125 -121.296875 9.703125 -124.890625 C 9.703125 -126.941406 10.289062 -128.609375 11.46875 -129.890625 C 12.65625 -131.179688 14.835938 -132.441406 18.015625 -133.671875 L 48.515625 -145.21875 C 54.773438 -147.582031 59.265625 -149.148438 61.984375 -149.921875 C 64.703125 -150.691406 66.882812 -151.078125 68.53125 -151.078125 C 71.09375 -151.078125 73.066406 -150.148438 74.453125 -148.296875 C 75.835938 -146.453125 76.789062 -143.375 77.3125 -139.0625 Z M 77.3125 -139.0625 "/></g></g></g><g fill="#2e5d3a" fill-opacity="1"><g transform="translate(371.535363, 380.159934)"><g><path d="M 159.546875 -92.546875 C 159.546875 -86.179688 157.773438 -81.253906 154.234375 -77.765625 C 150.691406 -74.273438 145.582031 -72.53125 138.90625 -72.53125 L 59.296875 -72.53125 C 61.753906 -59.1875 67.164062 -49.253906 75.53125 -42.734375 C 83.90625 -36.210938 94.351562 -32.953125 106.875 -32.953125 C 114.78125 -32.953125 121.835938 -34.234375 128.046875 -36.796875 C 134.265625 -39.367188 139.628906 -43.476562 144.140625 -49.125 C 146.609375 -51.488281 148.507812 -53.078125 149.84375 -53.890625 C 151.175781 -54.710938 152.507812 -55.125 153.84375 -55.125 C 155.695312 -55.125 157.03125 -54.25 157.84375 -52.5 C 158.664062 -50.757812 159.078125 -48.609375 159.078125 -46.046875 C 158.972656 -39.265625 157.175781 -32.867188 153.6875 -26.859375 C 150.195312 -20.859375 145.347656 -15.546875 139.140625 -10.921875 C 132.929688 -6.304688 125.585938 -2.664062 117.109375 0 C 108.640625 2.664062 99.273438 4 89.015625 4 C 77.515625 4 66.910156 2.253906 57.203125 -1.234375 C 47.503906 -4.722656 39.0625 -9.726562 31.875 -16.25 C 24.6875 -22.769531 19.113281 -30.570312 15.15625 -39.65625 C 11.207031 -48.738281 9.234375 -58.828125 9.234375 -69.921875 C 9.234375 -86.140625 12.46875 -100.359375 18.9375 -112.578125 C 25.40625 -124.796875 34.75 -134.316406 46.96875 -141.140625 C 59.1875 -147.960938 73.867188 -151.375 91.015625 -151.375 C 105.796875 -151.375 118.296875 -148.859375 128.515625 -143.828125 C 138.734375 -138.804688 146.457031 -131.878906 151.6875 -123.046875 C 156.925781 -114.210938 159.546875 -104.046875 159.546875 -92.546875 Z M 57.75 -89.78125 C 57.75 -89.269531 57.75 -88.726562 57.75 -88.15625 C 57.75 -87.59375 57.75 -87.054688 57.75 -86.546875 L 97.328125 -86.546875 C 100.097656 -86.546875 102.148438 -87.132812 103.484375 -88.3125 C 104.816406 -89.5 105.484375 -91.425781 105.484375 -94.09375 C 105.484375 -107.238281 103.503906 -116.941406 99.546875 -123.203125 C 95.597656 -129.460938 90.289062 -132.59375 83.625 -132.59375 C 76.125 -132.59375 69.9375 -128.945312 65.0625 -121.65625 C 60.1875 -114.363281 57.75 -103.738281 57.75 -89.78125 Z M 57.75 -89.78125 "/></g></g></g><g fill="#2e5d3a" fill-opacity="1"><g transform="translate(564.961293, 380.159934)"><g><path d="M 98.40625 0.609375 L 78.234375 0.609375 C 70.535156 0.609375 65.039062 -3.335938 61.75 -11.234375 L 17.703125 -119.65625 C 16.066406 -123.5625 14.757812 -126.15625 13.78125 -127.4375 C 12.800781 -128.71875 11.644531 -129.613281 10.3125 -130.125 L 6.15625 -131.515625 C 2.363281 -133.160156 0.46875 -135.78125 0.46875 -139.375 C 0.46875 -141.832031 1.363281 -143.753906 3.15625 -145.140625 C 4.957031 -146.523438 7.34375 -147.21875 10.3125 -147.21875 L 86.234375 -147.21875 C 89.210938 -147.21875 91.570312 -146.523438 93.3125 -145.140625 C 95.0625 -143.753906 95.9375 -141.832031 95.9375 -139.375 C 95.9375 -135.570312 93.628906 -133.003906 89.015625 -131.671875 L 84.078125 -130.59375 C 79.671875 -129.457031 77.003906 -127.582031 76.078125 -124.96875 C 75.148438 -122.351562 75.921875 -117.8125 78.390625 -111.34375 L 106.5625 -38.03125 L 133.828125 -111.34375 C 136.191406 -117.914062 136.910156 -122.507812 135.984375 -125.125 C 135.054688 -127.738281 132.4375 -129.5625 128.125 -130.59375 L 123.203125 -131.671875 C 118.578125 -133.003906 116.265625 -135.570312 116.265625 -139.375 C 116.265625 -141.832031 117.132812 -143.753906 118.875 -145.140625 C 120.625 -146.523438 122.988281 -147.21875 125.96875 -147.21875 L 166.78125 -147.21875 C 169.757812 -147.21875 172.144531 -146.523438 173.9375 -145.140625 C 175.738281 -143.753906 176.640625 -141.832031 176.640625 -139.375 C 176.640625 -137.726562 176.175781 -136.238281 175.25 -134.90625 C 174.320312 -133.570312 172.628906 -132.492188 170.171875 -131.671875 L 166.3125 -130.75 C 164.46875 -130.132812 162.75 -128.414062 161.15625 -125.59375 C 159.570312 -122.769531 157.441406 -118.070312 154.765625 -111.5 L 115.03125 -10.15625 C 113.394531 -5.851562 111.085938 -2.984375 108.109375 -1.546875 C 105.128906 -0.109375 101.894531 0.609375 98.40625 0.609375 Z M 98.40625 0.609375 "/></g></g></g><g fill="#2e5d3a" fill-opacity="1"><g transform="translate(766.241342, 380.159934)"><g><path d="M 159.546875 -92.546875 C 159.546875 -86.179688 157.773438 -81.253906 154.234375 -77.765625 C 150.691406 -74.273438 145.582031 -72.53125 138.90625 -72.53125 L 59.296875 -72.53125 C 61.753906 -59.1875 67.164062 -49.253906 75.53125 -42.734375 C 83.90625 -36.210938 94.351562 -32.953125 106.875 -32.953125 C 114.78125 -32.953125 121.835938 -34.234375 128.046875 -36.796875 C 134.265625 -39.367188 139.628906 -43.476562 144.140625 -49.125 C 146.609375 -51.488281 148.507812 -53.078125 149.84375 -53.890625 C 151.175781 -54.710938 152.507812 -55.125 153.84375 -55.125 C 155.695312 -55.125 157.03125 -54.25 157.84375 -52.5 C 158.664062 -50.757812 159.078125 -48.609375 159.078125 -46.046875 C 158.972656 -39.265625 157.175781 -32.867188 153.6875 -26.859375 C 150.195312 -20.859375 145.347656 -15.546875 139.140625 -10.921875 C 132.929688 -6.304688 125.585938 -2.664062 117.109375 0 C 108.640625 2.664062 99.273438 4 89.015625 4 C 77.515625 4 66.910156 2.253906 57.203125 -1.234375 C 47.503906 -4.722656 39.0625 -9.726562 31.875 -16.25 C 24.6875 -22.769531 19.113281 -30.570312 15.15625 -39.65625 C 11.207031 -48.738281 9.234375 -58.828125 9.234375 -69.921875 C 9.234375 -86.140625 12.46875 -100.359375 18.9375 -112.578125 C 25.40625 -124.796875 34.75 -134.316406 46.96875 -141.140625 C 59.1875 -147.960938 73.867188 -151.375 91.015625 -151.375 C 105.796875 -151.375 118.296875 -148.859375 128.515625 -143.828125 C 138.734375 -138.804688 146.457031 -131.878906 151.6875 -123.046875 C 156.925781 -114.210938 159.546875 -104.046875 159.546875 -92.546875 Z M 57.75 -89.78125 C 57.75 -89.269531 57.75 -88.726562 57.75 -88.15625 C 57.75 -87.59375 57.75 -87.054688 57.75 -86.546875 L 97.328125 -86.546875 C 100.097656 -86.546875 102.148438 -87.132812 103.484375 -88.3125 C 104.816406 -89.5 105.484375 -91.425781 105.484375 -94.09375 C 105.484375 -107.238281 103.503906 -116.941406 99.546875 -123.203125 C 95.597656 -129.460938 90.289062 -132.59375 83.625 -132.59375 C 76.125 -132.59375 69.9375 -128.945312 65.0625 -121.65625 C 60.1875 -114.363281 57.75 -103.738281 57.75 -89.78125 Z M 57.75 -89.78125 "/></g></g></g><g fill="#2e5d3a" fill-opacity="1"><g transform="translate(959.667271, 380.159934)"><g><path d="M 77.3125 -139.0625 L 79.625 -116.578125 C 83.414062 -128.179688 88.929688 -136.878906 96.171875 -142.671875 C 103.410156 -148.472656 111.34375 -151.375 119.96875 -151.375 C 130.332031 -151.375 138.3125 -148.367188 143.90625 -142.359375 C 149.507812 -136.359375 152.3125 -127.40625 152.3125 -115.5 C 152.3125 -104.207031 150 -95.835938 145.375 -90.390625 C 140.757812 -84.953125 134.804688 -82.234375 127.515625 -82.234375 C 120.117188 -82.234375 114.519531 -84.15625 110.71875 -88 C 106.925781 -91.851562 105.03125 -97.222656 105.03125 -104.109375 L 105.03125 -110.265625 C 104.925781 -116.117188 102.203125 -119.046875 96.859375 -119.046875 C 92.648438 -119.046875 88.90625 -116.347656 85.625 -110.953125 C 82.34375 -105.566406 80.703125 -96.765625 80.703125 -84.546875 L 80.703125 -28.796875 C 80.703125 -25.515625 81.238281 -23.128906 82.3125 -21.640625 C 83.394531 -20.148438 85.679688 -19.148438 89.171875 -18.640625 L 101.484375 -16.328125 C 106.921875 -15.398438 109.640625 -12.628906 109.640625 -8.015625 C 109.640625 -2.671875 106.203125 0 99.328125 0 L 20.796875 0 C 17.296875 0 14.722656 -0.691406 13.078125 -2.078125 C 11.441406 -3.460938 10.625 -5.390625 10.625 -7.859375 C 10.625 -11.453125 12.675781 -14.117188 16.78125 -15.859375 L 21.5625 -17.40625 C 23.300781 -18.019531 24.53125 -19.117188 25.25 -20.703125 C 25.96875 -22.296875 26.328125 -24.941406 26.328125 -28.640625 L 26.328125 -108.265625 C 26.328125 -111.242188 25.914062 -113.375 25.09375 -114.65625 C 24.28125 -115.9375 22.945312 -116.78125 21.09375 -117.1875 L 15.40625 -117.96875 C 11.601562 -118.988281 9.703125 -121.296875 9.703125 -124.890625 C 9.703125 -126.941406 10.289062 -128.609375 11.46875 -129.890625 C 12.65625 -131.179688 14.835938 -132.441406 18.015625 -133.671875 L 48.515625 -145.21875 C 54.773438 -147.582031 59.265625 -149.148438 61.984375 -149.921875 C 64.703125 -150.691406 66.882812 -151.078125 68.53125 -151.078125 C 71.09375 -151.078125 73.066406 -150.148438 74.453125 -148.296875 C 75.835938 -146.453125 76.789062 -143.375 77.3125 -139.0625 Z M 77.3125 -139.0625 "/></g></g></g><g fill="#2e5d3a" fill-opacity="1"><g transform="translate(1140.773131, 380.159934)"><g><path d="M 159.546875 -92.546875 C 159.546875 -86.179688 157.773438 -81.253906 154.234375 -77.765625 C 150.691406 -74.273438 145.582031 -72.53125 138.90625 -72.53125 L 59.296875 -72.53125 C 61.753906 -59.1875 67.164062 -49.253906 75.53125 -42.734375 C 83.90625 -36.210938 94.351562 -32.953125 106.875 -32.953125 C 114.78125 -32.953125 121.835938 -34.234375 128.046875 -36.796875 C 134.265625 -39.367188 139.628906 -43.476562 144.140625 -49.125 C 146.609375 -51.488281 148.507812 -53.078125 149.84375 -53.890625 C 151.175781 -54.710938 152.507812 -55.125 153.84375 -55.125 C 155.695312 -55.125 157.03125 -54.25 157.84375 -52.5 C 158.664062 -50.757812 159.078125 -48.609375 159.078125 -46.046875 C 158.972656 -39.265625 157.175781 -32.867188 153.6875 -26.859375 C 150.195312 -20.859375 145.347656 -15.546875 139.140625 -10.921875 C 132.929688 -6.304688 125.585938 -2.664062 117.109375 0 C 108.640625 2.664062 99.273438 4 89.015625 4 C 77.515625 4 66.910156 2.253906 57.203125 -1.234375 C 47.503906 -4.722656 39.0625 -9.726562 31.875 -16.25 C 24.6875 -22.769531 19.113281 -30.570312 15.15625 -39.65625 C 11.207031 -48.738281 9.234375 -58.828125 9.234375 -69.921875 C 9.234375 -86.140625 12.46875 -100.359375 18.9375 -112.578125 C 25.40625 -124.796875 34.75 -134.316406 46.96875 -141.140625 C 59.1875 -147.960938 73.867188 -151.375 91.015625 -151.375 C 105.796875 -151.375 118.296875 -148.859375 128.515625 -143.828125 C 138.734375 -138.804688 146.457031 -131.878906 151.6875 -123.046875 C 156.925781 -114.210938 159.546875 -104.046875 159.546875 -92.546875 Z M 57.75 -89.78125 C 57.75 -89.269531 57.75 -88.726562 57.75 -88.15625 C 57.75 -87.59375 57.75 -87.054688 57.75 -86.546875 L 97.328125 -86.546875 C 100.097656 -86.546875 102.148438 -87.132812 103.484375 -88.3125 C 104.816406 -89.5 105.484375 -91.425781 105.484375 -94.09375 C 105.484375 -107.238281 103.503906 -116.941406 99.546875 -123.203125 C 95.597656 -129.460938 90.289062 -132.59375 83.625 -132.59375 C 76.125 -132.59375 69.9375 -128.945312 65.0625 -121.65625 C 60.1875 -114.363281 57.75 -103.738281 57.75 -89.78125 Z M 57.75 -89.78125 "/></g></g></g></svg>